HIERARCHY
ROOT hip
{
  OFFSET 0 90.174 2.4664
  CHANNELS 6 Xposition Yposition Zposition Zrotation Xrotation Yrotation
  JOINT abdomen
  {
    OFFSET 0 -1.186 -1.5018
    CHANNELS 6 Xposition Yposition Zposition Zrotation Xrotation Yrotation
    JOINT abdomen2
    {
      OFFSET 0 9.964 0.2134
      CHANNELS 6 Xposition Yposition Zposition Zrotation Xrotation Yrotation
      JOINT chest
      {
        OFFSET 0 13.134 -3.2573
        CHANNELS 6 Xposition Yposition Zposition Zrotation Xrotation Yrotation
        JOINT neck
        {
          OFFSET 0 20.686 -1.6905
          CHANNELS 6 Xposition Yposition Zposition Zrotation Xrotation Yrotation
          JOINT head
          {
            OFFSET 0 7.238 -0.1237
            CHANNELS 6 Xposition Yposition Zposition Zrotation Xrotation Yrotation
            End Site
            {
              OFFSET 0 0 0
            }
          }
        }
        JOINT lCollar
        {
          OFFSET 1.7069 20.075 5.0056
          CHANNELS 6 Xposition Yposition Zposition Zrotation Xrotation Yrotation
          JOINT lShldr
          {
            OFFSET 13.6458 -0.047 -4.849
            CHANNELS 6 Xposition Yposition Zposition Zrotation Xrotation Yrotation
            JOINT lForeArm
            {
              OFFSET 28.3255 -0.9759 2.2888
              CHANNELS 6 Xposition Yposition Zposition Zrotation Xrotation Yrotation
              JOINT lHand
              {
                OFFSET 22.1583 -0.53 10.8316
                CHANNELS 6 Xposition Yposition Zposition Zrotation Xrotation Yrotation
                JOINT lThumb1
                {
                  OFFSET 0.786 0.112 2.5817
                  CHANNELS 6 Xposition Yposition Zposition Zrotation Xrotation Yrotation
                  JOINT lThumb2
                  {
                    OFFSET 0.3601 -0.878 4.2331
                    CHANNELS 6 Xposition Yposition Zposition Zrotation Xrotation Yrotation
                    JOINT lThumb2_End
                    {
                      OFFSET 1.8127 -1.216 2.2227
                      CHANNELS 6 Xposition Yposition Zposition Zrotation Xrotation Yrotation
                      End Site
                      {
                        OFFSET 0.0181 -0.0122 0.0222
                      }
                    }
                  }
                }
                JOINT lCarpal1
                {
                  OFFSET 0.9571 1.114 1.7695
                  CHANNELS 6 Xposition Yposition Zposition Zrotation Xrotation Yrotation
                  JOINT lIndex1
                  {
                    OFFSET 4.1246 0.487 4.1451
                    CHANNELS 6 Xposition Yposition Zposition Zrotation Xrotation Yrotation
                    JOINT lIndex2
                    {
                      OFFSET 3.4052 -1.454 2.7682
                      CHANNELS 6 Xposition Yposition Zposition Zrotation Xrotation Yrotation
                      JOINT lIndex2_End
                      {
                        OFFSET 1.4531 -1.795 1.2713
                        CHANNELS 6 Xposition Yposition Zposition Zrotation Xrotation Yrotation
                        End Site
                        {
                          OFFSET 0.0145 -0.0179 0.0127
                        }
                      }
                    }
                  }
                  JOINT lMid1
                  {
                    OFFSET 5.6954 0.21 2.1184
                    CHANNELS 6 Xposition Yposition Zposition Zrotation Xrotation Yrotation
                    JOINT lMid2
                    {
                      OFFSET 3.9766 -1.54 2.3863
                      CHANNELS 6 Xposition Yposition Zposition Zrotation Xrotation Yrotation
                      JOINT lMid2_End
                      {
                        OFFSET 1.4042 -1.926 1.125
                        CHANNELS 6 Xposition Yposition Zposition Zrotation Xrotation Yrotation
                        End Site
                        {
                          OFFSET 0.014 -0.0193 0.0113
                        }
                      }
                    }
                  }
                }
                JOINT lCarpal2
                {
                  OFFSET 2.0956 0.66 -0.3894
                  CHANNELS 6 Xposition Yposition Zposition Zrotation Xrotation Yrotation
                  JOINT lRing1
                  {
                    OFFSET 5.0395 -0.09 2.4971
                    CHANNELS 6 Xposition Yposition Zposition Zrotation Xrotation Yrotation
                    JOINT lRing2
                    {
                      OFFSET 3.7921 -1.552 1.4806
                      CHANNELS 6 Xposition Yposition Zposition Zrotation Xrotation Yrotation
                      JOINT lRing2_End
                      {
                        OFFSET 1.4655 -1.808 0.9609
                        CHANNELS 6 Xposition Yposition Zposition Zrotation Xrotation Yrotation
                        End Site
                        {
                          OFFSET 0.0147 -0.0181 0.0096
                        }
                      }
                    }
                  }
                  JOINT lPinky1
                  {
                    OFFSET 4.9141 -1.269 0.3591
                    CHANNELS 6 Xposition Yposition Zposition Zrotation Xrotation Yrotation
                    JOINT lPinky2
                    {
                      OFFSET 3.1477 -1.685 0.8462
                      CHANNELS 6 Xposition Yposition Zposition Zrotation Xrotation Yrotation
                      JOINT lPinky2_End
                      {
                        OFFSET 0.8055 -1.585 0.7955
                        CHANNELS 6 Xposition Yposition Zposition Zrotation Xrotation Yrotation
                        End Site
                        {
                          OFFSET 0.0081 -0.0158 0.008
                        }
                      }
                    }
                  }
                }
              }
            }
          }
        }
        JOINT rCollar
        {
          OFFSET -1.7069 20.075 5.0056
          CHANNELS 6 Xposition Yposition Zposition Zrotation Xrotation Yrotation
          JOINT rShldr
          {
            OFFSET -13.6458 -0.047 -4.849
            CHANNELS 6 Xposition Yposition Zposition Zrotation Xrotation Yrotation
            JOINT rForeArm
            {
              OFFSET -28.3255 -0.9759 2.2888
              CHANNELS 6 Xposition Yposition Zposition Zrotation Xrotation Yrotation
              JOINT rHand
              {
                OFFSET -22.1583 -0.53 10.8316
                CHANNELS 6 Xposition Yposition Zposition Zrotation Xrotation Yrotation
                JOINT rThumb1
                {
                  OFFSET -0.786 0.112 2.5817
                  CHANNELS 6 Xposition Yposition Zposition Zrotation Xrotation Yrotation
                  JOINT rThumb2
                  {
                    OFFSET -0.3601 -0.878 4.2331
                    CHANNELS 6 Xposition Yposition Zposition Zrotation Xrotation Yrotation
                    JOINT rThumb2_End
                    {
                      OFFSET -1.8127 -1.216 2.2227
                      CHANNELS 6 Xposition Yposition Zposition Zrotation Xrotation Yrotation
                      End Site
                      {
                        OFFSET -0.0181 -0.0122 0.0222
                      }
                    }
                  }
                }
                JOINT rCarpal1
                {
                  OFFSET -0.9571 1.114 1.7695
                  CHANNELS 6 Xposition Yposition Zposition Zrotation Xrotation Yrotation
                  JOINT rIndex1
                  {
                    OFFSET -4.1246 0.487 4.1451
                    CHANNELS 6 Xposition Yposition Zposition Zrotation Xrotation Yrotation
                    JOINT rIndex2
                    {
                      OFFSET -3.4052 -1.454 2.7682
                      CHANNELS 6 Xposition Yposition Zposition Zrotation Xrotation Yrotation
                      JOINT rIndex2_End
                      {
                        OFFSET -1.4531 -1.795 1.2713
                        CHANNELS 6 Xposition Yposition Zposition Zrotation Xrotation Yrotation
                        End Site
                        {
                          OFFSET -0.0145 -0.018 0.0127
                        }
                      }
                    }
                  }
                  JOINT rMid1
                  {
                    OFFSET -5.6954 0.21 2.1184
                    CHANNELS 6 Xposition Yposition Zposition Zrotation Xrotation Yrotation
                    JOINT rMid2
                    {
                      OFFSET -3.9766 -1.54 2.3863
                      CHANNELS 6 Xposition Yposition Zposition Zrotation Xrotation Yrotation
                      JOINT rMid2_End
                      {
                        OFFSET -1.4042 -1.926 1.125
                        CHANNELS 6 Xposition Yposition Zposition Zrotation Xrotation Yrotation
                        End Site
                        {
                          OFFSET -0.014 -0.0193 0.0113
                        }
                      }
                    }
                  }
                }
                JOINT rCarpal2
                {
                  OFFSET -2.0956 0.66 -0.3894
                  CHANNELS 6 Xposition Yposition Zposition Zrotation Xrotation Yrotation
                  JOINT rRing1
                  {
                    OFFSET -5.0395 -0.09 2.4971
                    CHANNELS 6 Xposition Yposition Zposition Zrotation Xrotation Yrotation
                    JOINT rRing2
                    {
                      OFFSET -3.7921 -1.552 1.4806
                      CHANNELS 6 Xposition Yposition Zposition Zrotation Xrotation Yrotation
                      JOINT rRing2_End
                      {
                        OFFSET -1.4655 -1.808 0.9609
                        CHANNELS 6 Xposition Yposition Zposition Zrotation Xrotation Yrotation
                        End Site
                        {
                          OFFSET -0.0147 -0.0181 0.0096
                        }
                      }
                    }
                  }
                  JOINT rPinky1
                  {
                    OFFSET -4.9141 -1.269 0.3592
                    CHANNELS 6 Xposition Yposition Zposition Zrotation Xrotation Yrotation
                    JOINT rPinky2
                    {
                      OFFSET -3.1477 -1.685 0.8462
                      CHANNELS 6 Xposition Yposition Zposition Zrotation Xrotation Yrotation
                      JOINT rPinky2_End
                      {
                        OFFSET -0.8055 -1.585 0.7955
                        CHANNELS 6 Xposition Yposition Zposition Zrotation Xrotation Yrotation
                        End Site
                        {
                          OFFSET -0.0081 -0.0158 0.008
                        }
                      }
                    }
                  }
                }
              }
            }
          }
        }
      }
    }
  }
  JOINT lThigh
  {
    OFFSET 8.367 -8.2066 0.5982
    CHANNELS 6 Xposition Yposition Zposition Zrotation Xrotation Yrotation
    JOINT lShin
    {
      OFFSET 2.1923 -43.463 -0.4932
      CHANNELS 6 Xposition Yposition Zposition Zrotation Xrotation Yrotation
      JOINT lFoot
      {
        OFFSET 0.7333 -45.8593 -2.6451
        CHANNELS 6 Xposition Yposition Zposition Zrotation Xrotation Yrotation
        End Site
        {
          OFFSET 2.6618 -4.2699 12.3931
        }
      }
    }
  }
  JOINT rThigh
  {
    OFFSET -8.367 -8.2066 0.5982
    CHANNELS 6 Xposition Yposition Zposition Zrotation Xrotation Yrotation
    JOINT rShin
    {
      OFFSET -2.1923 -43.463 -0.4931
      CHANNELS 6 Xposition Yposition Zposition Zrotation Xrotation Yrotation
      JOINT rFoot
      {
        OFFSET -0.7333 -45.8593 -2.6451
        CHANNELS 6 Xposition Yposition Zposition Zrotation Xrotation Yrotation
        End Site
        {
          OFFSET -2.6618 -4.2699 12.3931
        }
      }
    }
  }
}
MOTION
Frames:	4
Frame Time:	0.0333333
0 90.174 2.4664 0 0 -0 0 -1.186 -1.5018 0 0 -0 0 9.964 0.2134 0 0 -0 0 13.134 -3.2573 0 0 -0 0 20.686 -1.6905 0 0 -0 0 7.238 -0.1237 0 0 -0 1.7069 20.075 5.0056 0 0 -0 13.6458 -0.047 -4.849 1.66051 0.0835086 5.75766 28.3255 -0.9759 2.2888 -0.0175111 0.895433 15.7816 22.1583 -0.53 10.8316 7.95139e-016 -1.98785e-016 -0 0.786 0.112 2.5817 5.46658e-016 -3.97569e-016 -0 0.3601 -0.878 4.2331 5.96354e-016 0 -0 1.8127 -1.216 2.2227 3.97569e-016 1.98785e-016 9.54166e-015 0.9571 1.114 1.7695 1.49089e-016 -3.97569e-016 -0 4.1246 0.487 4.1451 6.4605e-016 0 3.18055e-015 3.4052 -1.454 2.7682 5.96354e-016 0 3.18055e-015 1.4531 -1.795 1.2713 8.94531e-016 -1.98785e-016 6.36111e-015 5.6954 0.21 2.1184 6.4605e-016 0 3.18055e-015 3.9766 -1.54 2.3863 5.96354e-016 0 3.18055e-015 1.4042 -1.926 1.125 8.94531e-016 -1.98785e-016 6.36111e-015 2.0956 0.66 -0.3894 1.49089e-016 -3.97569e-016 -0 5.0395 -0.09 2.4971 6.4605e-016 0 3.18055e-015 3.7921 -1.552 1.4806 5.96354e-016 0 3.18055e-015 1.4655 -1.808 0.9609 8.94531e-016 -1.98785e-016 6.36111e-015 4.9141 -1.269 0.3591 6.4605e-016 0 3.18055e-015 3.1477 -1.685 0.8462 5.96354e-016 0 3.18055e-015 0.8055 -1.585 0.7955 8.94531e-016 -1.98785e-016 6.36111e-015 -1.7069 20.075 5.0056 0 0 -0 -13.6458 -0.047 -4.849 -1.4496 0.0636048 -5.0245 -28.3255 -0.9759 2.2888 -1.74811 1.20616 -16.8394 -22.1583 -0.53 10.8316 -1.19271e-015 1.98785e-016 -3.18055e-015 -0.786 0.112 2.5817 -3.97569e-016 1.98785e-016 -3.18055e-015 -0.3601 -0.878 4.2331 -2.98177e-016 1.98785e-016 -3.18055e-015 -1.8127 -1.216 2.2227 -2.98177e-016 3.97569e-016 -0 -0.9571 1.114 1.7695 4.96962e-016 0 -6.36111e-015 -4.1246 0.487 4.1451 -9.93923e-017 3.97569e-016 -0 -3.4052 -1.454 2.7682 -8.94531e-016 5.96354e-016 -0 -1.4531 -1.795 1.2713 -3.97569e-016 3.97569e-016 -0 -5.6954 0.21 2.1184 -9.93923e-017 3.97569e-016 -0 -3.9766 -1.54 2.3863 -8.94531e-016 5.96354e-016 -0 -1.4042 -1.926 1.125 -3.97569e-016 3.97569e-016 -0 -2.0956 0.66 -0.3894 4.96962e-016 0 -6.36111e-015 -5.0395 -0.09 2.4971 -9.93923e-017 3.97569e-016 -0 -3.7921 -1.552 1.4806 -8.94531e-016 5.96354e-016 -0 -1.4655 -1.808 0.9609 -3.97569e-016 3.97569e-016 -0 -4.9141 -1.269 0.3592 -9.93923e-017 3.97569e-016 -0 -3.1477 -1.685 0.8462 -8.94531e-016 5.96354e-016 -0 -0.8055 -1.585 0.7955 -3.97569e-016 3.97569e-016 -0 8.367 -8.2066 0.5982 -4.66115 -1.03232 0.120763 2.1923 -43.463 -0.4932 0.00990601 1.55097 0.177175 0.7333 -45.8593 -2.6451 4.65196 -0.54114 -0.255042 -8.367 -8.2066 0.5982 4.66115 -1.03222 -0.120763 -2.1923 -43.463 -0.4931 -0.00990459 1.5509 -0.177176 -0.7333 -45.8593 -2.6451 -4.65196 -0.541171 0.255041 
0.000144274 4.77034 -7.3075 -0 -82.0004 -0 0 -1.186 -1.5018 -0.0186314 -3.06723 -0.153011 -1.73472e-018 9.964 0.2134 -0.0455778 -6.13439 -0.307686 1.04083e-017 13.134 -3.2573 -0.0455777 -6.13438 -0.307686 -2.77556e-017 20.686 -1.6905 -7.33034 30.1264 -1.30707 0 7.238 -0.1237 16.1593 -8.01047 6.31185 1.7069 20.075 5.0056 -15.833 14.1706 3.825 13.6458 -0.047 -4.849 -67.5995 -8.62295 -46.9262 28.3255 -0.9759 2.2888 -12.9745 36.5754 17.1217 22.1583 -0.53 10.8316 -46.7303 -7.08256 14.0079 0.786 0.112 2.5817 -2.43658e-006 -1.74744e-006 -2.43625e-006 0.3601 -0.878 4.2331 -5.24498e-007 4.21823e-006 9.4115e-007 1.8127 -1.216 2.2227 1.11421e-006 -4.84216e-006 2.06992e-006 0.9571 1.114 1.7695 -3.18055e-015 1.59028e-015 3.18055e-015 4.1246 0.487 4.1451 -2.43658e-006 -1.74744e-006 -2.43625e-006 3.4052 -1.454 2.7682 -5.24498e-007 4.21823e-006 9.4115e-007 1.4531 -1.795 1.2713 1.11421e-006 -4.84216e-006 2.06992e-006 5.6954 0.21 2.1184 -2.43658e-006 -1.74744e-006 -2.43625e-006 3.9766 -1.54 2.3863 -5.24498e-007 4.21823e-006 9.4115e-007 1.4042 -1.926 1.125 1.11421e-006 -4.84216e-006 2.06992e-006 2.0956 0.66 -0.3894 -3.18055e-015 1.59028e-015 3.18055e-015 5.0395 -0.09 2.4971 -2.43658e-006 -1.74744e-006 -2.43625e-006 3.7921 -1.552 1.4806 -5.24498e-007 4.21823e-006 9.4115e-007 1.4655 -1.808 0.9609 1.11421e-006 -4.84216e-006 2.06992e-006 4.9141 -1.269 0.3591 -2.43658e-006 -1.74744e-006 -2.43625e-006 3.1477 -1.685 0.8462 -5.24498e-007 4.21823e-006 9.4115e-007 0.8055 -1.585 0.7955 1.11421e-006 -4.84216e-006 2.06992e-006 -1.7069 20.075 5.0056 15.8298 14.1703 -3.82809 -13.6458 -0.047 -4.849 67.7408 -8.4712 47.6777 -28.3255 -0.9759 2.2888 11.346 36.7433 -17.2084 -22.1583 -0.53 10.8316 46.7422 -6.4809 -14.4197 -0.786 0.112 2.5817 -9.54166e-015 4.27387e-015 -1.19271e-015 -0.3601 -0.878 4.2331 1.26897e-006 2.90096e-006 -2.37203e-006 -1.8127 -1.216 2.2227 -1.59487e-032 1.83876e-015 4.96962e-016 -0.9571 1.114 1.7695 -9.54166e-015 4.27387e-015 -1.19271e-015 -4.1246 0.487 4.1451 6.36111e-015 -2.48481e-014 7.15625e-015 -3.4052 -1.454 2.7682 1.26897e-006 2.90096e-006 -2.37203e-006 -1.4531 -1.795 1.2713 6.98294e-033 -4.02539e-015 9.93923e-017 -5.6954 0.21 2.1184 6.36111e-015 -2.48481e-014 7.15625e-015 -3.9766 -1.54 2.3863 1.26897e-006 2.90096e-006 -2.37203e-006 -1.4042 -1.926 1.125 6.98294e-033 -4.02539e-015 9.93923e-017 -2.0956 0.66 -0.3894 -9.54166e-015 4.27387e-015 -1.19271e-015 -5.0395 -0.09 2.4971 6.36111e-015 -2.48481e-014 7.15625e-015 -3.7921 -1.552 1.4806 1.26897e-006 2.90096e-006 -2.37203e-006 -1.4655 -1.808 0.9609 6.98294e-033 -4.02539e-015 9.93923e-017 -4.9141 -1.269 0.3592 6.36111e-015 -2.48481e-014 7.15625e-015 -3.1477 -1.685 0.8462 1.26897e-006 2.90096e-006 -2.37203e-006 -0.8055 -1.585 0.7955 6.98294e-033 -4.02539e-015 9.93923e-017 8.367 -8.2066 0.5982 17.9224 -17.3735 51.6128 2.1923 -43.463 -0.4932 2.00853 45.015 0.764679 0.7333 -45.8593 -2.6451 5.78324 20.0176 -1.66352 -8.367 -8.2066 0.5982 -17.9258 -17.371 -51.6169 -2.1923 -43.463 -0.4931 -2.01113 45.0131 -0.767312 -0.7333 -45.8593 -2.6451 -5.78655 20.0185 1.66061 
-0.000907856 4.93382 -7.30154 -0 -82.0004 -0 0 -1.186 -1.5018 -0.0180212 -3.18891 -0.153064 1.73472e-018 9.964 0.2134 -0.0446944 -6.37775 -0.307851 -6.93889e-018 13.134 -3.2573 -0.0446944 -6.37776 -0.307851 2.08167e-017 20.686 -1.6905 -7.33037 30.126 -1.30706 -8.88178e-016 7.238 -0.1237 16.0239 -8.35807 6.2855 1.7069 20.075 5.0056 -15.6437 14.818 4.36354 13.6458 -0.047 -4.849 -67.8261 -8.3412 -47.0304 28.3255 -0.9759 2.2888 -13.1455 36.5819 17.087 22.1583 -0.53 10.8316 -46.7303 -7.08255 14.0079 0.786 0.112 2.5817 2.37236e-006 -1.84535e-006 -1.51733e-006 0.3601 -0.878 4.2331 4.13804e-032 2.38542e-015 -9.93923e-016 1.8127 -1.216 2.2227 2.37236e-006 -1.84535e-006 -1.51733e-006 0.9571 1.114 1.7695 -3.18055e-015 -1.98785e-015 1.19271e-015 4.1246 0.487 4.1451 2.37236e-006 -1.84535e-006 -1.51733e-006 3.4052 -1.454 2.7682 4.27597e-032 3.08116e-015 -7.95139e-016 1.4531 -1.795 1.2713 2.37236e-006 -1.84535e-006 -1.51733e-006 5.6954 0.21 2.1184 2.37236e-006 -1.84535e-006 -1.51733e-006 3.9766 -1.54 2.3863 4.27597e-032 3.08116e-015 -7.95139e-016 1.4042 -1.926 1.125 2.37236e-006 -1.84535e-006 -1.51733e-006 2.0956 0.66 -0.3894 -3.18055e-015 -1.98785e-015 1.19271e-015 5.0395 -0.09 2.4971 2.37236e-006 -1.84535e-006 -1.51733e-006 3.7921 -1.552 1.4806 4.27597e-032 3.08116e-015 -7.95139e-016 1.4655 -1.808 0.9609 2.37236e-006 -1.84535e-006 -1.51733e-006 4.9141 -1.269 0.3591 2.37236e-006 -1.84535e-006 -1.51733e-006 3.1477 -1.685 0.8462 4.27597e-032 3.08116e-015 -7.95139e-016 0.8055 -1.585 0.7955 2.37236e-006 -1.84535e-006 -1.51733e-006 -1.7069 20.075 5.0056 15.6258 14.8073 -4.38594 -13.6458 -0.047 -4.849 67.9714 -8.18192 47.7823 -28.3255 -0.9759 2.2888 11.5215 36.7453 -17.172 -22.1583 -0.53 10.8316 46.7422 -6.48091 -14.4197 -0.786 0.112 2.5817 -6.36111e-015 9.88954e-015 -9.93923e-017 -0.3601 -0.878 4.2331 -4.89886e-007 -4.20118e-006 8.84434e-007 -1.8127 -1.216 2.2227 -3.18055e-015 3.27995e-014 -9.0447e-015 -0.9571 1.114 1.7695 -6.36111e-015 9.88954e-015 -1.68967e-015 -4.1246 0.487 4.1451 4.06622e-030 -2.32081e-014 1.00386e-014 -3.4052 -1.454 2.7682 -4.89886e-007 -4.20118e-006 8.84434e-007 -1.4531 -1.795 1.2713 -6.36111e-015 2.36554e-014 -9.93923e-015 -5.6954 0.21 2.1184 4.06622e-030 -2.32081e-014 1.00386e-014 -3.9766 -1.54 2.3863 -4.89886e-007 -4.20118e-006 8.84434e-007 -1.4042 -1.926 1.125 -6.36111e-015 2.36554e-014 -9.93923e-015 -2.0956 0.66 -0.3894 -6.36111e-015 9.88954e-015 -1.68967e-015 -5.0395 -0.09 2.4971 4.06622e-030 -2.32081e-014 1.00386e-014 -3.7921 -1.552 1.4806 -4.89886e-007 -4.20118e-006 8.84434e-007 -1.4655 -1.808 0.9609 -6.36111e-015 2.36554e-014 -9.93923e-015 -4.9141 -1.269 0.3592 4.06622e-030 -2.32081e-014 1.00386e-014 -3.1477 -1.685 0.8462 -4.89886e-007 -4.20118e-006 8.84434e-007 -0.8055 -1.585 0.7955 -6.36111e-015 2.36554e-014 -9.93923e-015 8.367 -8.2066 0.5982 17.7289 -17.2754 51.137 2.1923 -43.463 -0.4932 2.00888 45.0186 0.767885 0.7333 -45.8593 -2.6451 5.42112 20.0037 -1.27441 -8.367 -8.2066 0.5982 -17.6259 -17.3646 -50.8744 -2.1923 -43.463 -0.4931 -2.01193 45.0228 -0.773433 -0.7333 -45.8593 -2.6451 -5.2211 20.0252 0.991608 
-0.00191664 5.09734 -7.29551 -0 -82.0004 -0 0 -1.186 -1.5018 -0.0174095 -3.31076 -0.153112 -2.60209e-018 9.964 0.2134 -0.0438084 -6.62148 -0.308006 6.93889e-018 13.134 -3.2573 -0.0438084 -6.62146 -0.308006 1.73472e-017 20.686 -1.6905 -7.33026 30.1256 -1.30712 0 7.238 -0.1237 15.8883 -8.70567 6.25829 1.7069 20.075 5.0056 -15.46 15.4677 4.90201 13.6458 -0.047 -4.849 -68.0521 -8.05899 -47.1334 28.3255 -0.9759 2.2888 -13.3165 36.5884 17.0523 22.1583 -0.53 10.8316 -46.7303 -7.08254 14.0079 0.786 0.112 2.5817 -3.61556e-006 9.6304e-007 6.49472e-007 0.3601 -0.878 4.2331 3.18055e-015 -3.18055e-015 1.59028e-015 1.8127 -1.216 2.2227 -2.37342e-006 1.84368e-006 1.51875e-006 0.9571 1.114 1.7695 -3.18055e-015 -4.57205e-015 9.93923e-016 4.1246 0.487 4.1451 -3.61556e-006 9.6304e-007 6.49472e-007 3.4052 -1.454 2.7682 -2.08626e-031 5.46658e-015 2.18663e-015 1.4531 -1.795 1.2713 -2.37342e-006 1.84368e-006 1.51875e-006 5.6954 0.21 2.1184 -3.61556e-006 9.6304e-007 6.49472e-007 3.9766 -1.54 2.3863 -2.08626e-031 5.46658e-015 2.18663e-015 1.4042 -1.926 1.125 -2.37342e-006 1.84368e-006 1.51875e-006 2.0956 0.66 -0.3894 -3.18055e-015 -4.57205e-015 9.93923e-016 5.0395 -0.09 2.4971 -3.61556e-006 9.6304e-007 6.49472e-007 3.7921 -1.552 1.4806 -2.08626e-031 5.46658e-015 2.18663e-015 1.4655 -1.808 0.9609 -2.37342e-006 1.84368e-006 1.51875e-006 4.9141 -1.269 0.3591 -3.61556e-006 9.6304e-007 6.49472e-007 3.1477 -1.685 0.8462 -2.08626e-031 5.46658e-015 2.18663e-015 0.8055 -1.585 0.7955 -2.37342e-006 1.84368e-006 1.51875e-006 -1.7069 20.075 5.0056 15.4274 15.4468 -4.94363 -13.6458 -0.047 -4.849 68.2013 -7.89219 47.8855 -28.3255 -0.9759 2.2888 11.6971 36.7473 -17.1355 -22.1583 -0.53 10.8316 46.7422 -6.48092 -14.4197 -0.786 0.112 2.5817 -1.59028e-014 -6.5102e-015 1.78906e-015 -0.3601 -0.878 4.2331 -6.36111e-015 -1.19768e-014 5.1684e-015 -1.8127 -1.216 2.2227 -6.36111e-015 -2.88238e-015 -3.8763e-015 -0.9571 1.114 1.7695 -9.54166e-015 3.03147e-015 1.98785e-016 -4.1246 0.487 4.1451 -1.27222e-014 -1.33186e-014 2.28602e-015 -3.4052 -1.454 2.7682 -1.59028e-014 -5.41688e-015 -4.07509e-015 -1.4531 -1.795 1.2713 -6.36111e-015 -7.15625e-015 -2.28602e-015 -5.6954 0.21 2.1184 -1.27222e-014 -1.33186e-014 2.28602e-015 -3.9766 -1.54 2.3863 -1.59028e-014 -5.41688e-015 -4.07509e-015 -1.4042 -1.926 1.125 -6.36111e-015 -7.15625e-015 -2.28602e-015 -2.0956 0.66 -0.3894 -9.54166e-015 3.03147e-015 1.98785e-016 -5.0395 -0.09 2.4971 -1.27222e-014 -1.33186e-014 2.28602e-015 -3.7921 -1.552 1.4806 -1.59028e-014 -5.41688e-015 -4.07509e-015 -1.4655 -1.808 0.9609 -6.36111e-015 -7.15625e-015 -2.28602e-015 -4.9141 -1.269 0.3592 -1.27222e-014 -1.33186e-014 2.28602e-015 -3.1477 -1.685 0.8462 -1.59028e-014 -5.41688e-015 -4.07509e-015 -0.8055 -1.585 0.7955 -6.36111e-015 -7.15625e-015 -2.28602e-015 8.367 -8.2066 0.5982 17.5362 -17.1758 50.6617 2.1923 -43.463 -0.4932 2.00925 45.0221 0.770962 0.7333 -45.8593 -2.6451 5.05906 19.9873 -0.88521 -8.367 -8.2066 0.5982 -17.3255 -17.3544 -50.1314 -2.1923 -43.463 -0.4931 -2.01271 45.0321 -0.779336 -0.7333 -45.8593 -2.6451 -4.65517 20.0259 0.321897 
